<svg width="38" height="25" viewBox="0 0 38 25" fill="none" xmlns="http://www.w3.org/2000/svg">
<path fill-rule="evenodd" clip-rule="evenodd" d="M32.4593 5.40889L27.496 8.73675C27.9789 9.11339 28.2492 9.52681 28.2531 9.95767C28.2628 10.9553 26.8538 11.8302 24.6583 12.3769C30.0609 11.6375 33.8497 9.79473 33.8283 7.60458C33.8207 6.82541 33.3311 6.08156 32.4593 5.40889ZM30.8104 4.4257C29.7426 5.41838 27.583 7.42958 26.7233 8.25555C25.8686 7.81502 24.7008 7.44516 23.3222 7.18665L25.3549 2.80068C27.5106 3.1865 29.38 3.74648 30.8104 4.4257ZM23.1538 2.47998C21.7958 2.32467 20.3573 2.23481 18.8687 2.22133C17.637 2.21032 16.4408 2.25221 15.2971 2.34112L16.3073 6.88069C17.1346 6.80808 18.0078 6.77032 18.9132 6.77806C20.083 6.78871 21.1982 6.87392 22.2314 7.01431L23.1538 2.47998ZM13.0655 2.58259C10.6932 2.9155 8.63804 3.46194 7.0882 4.15702C8.12923 5.1254 10.3197 7.16627 11.2486 8.0561C12.2232 7.59039 13.5862 7.22441 15.1863 7.00559L13.0655 2.58259ZM5.42317 5.10192C4.51119 5.77521 4.00469 6.53287 4.01254 7.33736C4.03391 9.5279 7.86124 11.4394 13.2819 12.2756C11.0728 11.6893 9.64509 10.7889 9.63484 9.79114C9.63094 9.33511 9.92949 8.90619 10.4573 8.52181L5.42317 5.10192Z" fill="white"/>
<path fill-rule="evenodd" clip-rule="evenodd" d="M37.0859 6.70456C37.0859 5.60112 34.7431 0.44406 18.3598 0.444031C0.627787 0.444031 0.815785 6.27271 0.815785 6.27271V18.5007C0.826916 19.5829 1.8368 20.6172 3.3658 21.5237L5.79033 22.6548C6.53105 22.9324 7.33957 23.1879 8.21183 23.4195L11.8395 24.1803C12.6399 24.3071 13.4738 24.4119 14.3288 24.4997C14.3288 24.4997 15.438 24.7101 19.0302 24.7101C22.6224 24.7101 23.7679 24.5876 23.7679 24.5876C24.6463 24.5127 25.5023 24.4209 26.322 24.3031L29.9345 23.5972C30.8017 23.3786 31.6062 23.135 32.3408 22.8685L34.7431 21.7723C36.268 20.8808 37.032 19.8525 37.0209 18.7643C37.0209 18.7643 37.0859 7.80801 37.0859 6.70456ZM36.3734 6.95971C36.4056 10.1664 28.6179 12.6954 18.9786 12.6092C9.3382 12.5231 1.49791 9.85176 1.46669 6.64698C1.43449 3.44027 9.22307 0.911296 18.8625 0.997467C28.5009 1.08461 36.3412 3.75397 36.3734 6.95971ZM19.008 14.8406C21.5788 14.8629 23.6735 15.9376 23.7155 20.159C23.733 21.8844 23.6891 23.1798 23.5945 24.151C22.1554 24.273 20.6519 24.3388 19.0909 24.3252C17.4977 24.3107 15.961 24.2158 14.4937 24.0648C14.4517 22.9417 14.4224 21.6307 14.4068 20.0758C14.3649 15.8543 16.4381 14.8174 19.008 14.8406ZM12.038 18.1451L12.0389 18.2633V18.1848L12.0936 23.755C10.8418 23.5555 9.67495 23.3047 8.59589 23.0172L8.54613 17.9651L8.54515 17.9002L8.54027 17.4451L8.53832 17.2921L8.53637 17.0946V17.0588C8.51588 14.9471 12.0165 16.0344 12.038 18.1451ZM29.4806 17.2466L29.4815 17.3028L29.4806 17.2844L29.5391 23.1905C28.4659 23.4626 27.3039 23.6949 26.056 23.875L26.0004 18.3049V18.27C25.979 16.1593 29.4591 15.1359 29.4806 17.2466ZM3.86107 14.9055C3.84059 12.7948 6.17726 13.8715 6.19872 15.9822C6.20899 17.0378 6.21178 17.3016 6.21172 17.3016C6.21169 17.3016 6.21057 17.2014 6.20945 17.1246L6.26019 22.2765C5.36942 21.9396 4.58208 21.5726 3.92254 21.1795L3.86107 14.9452V14.9055ZM31.8085 17.3125L31.7968 16.2116C31.7763 14.1009 34.0934 13.0659 34.1139 15.1766L34.1764 21.4196C33.5236 21.804 32.7441 22.1593 31.8602 22.4827L31.8085 17.3125Z" fill="white"/>
</svg>
