<?xml version="1.0" encoding="utf-8"?>
<svg xmlns="http://www.w3.org/2000/svg" fill="none" height="168" viewBox="0 0 252 168" width="252">
<path clip-rule="evenodd" d="M219.213 34.4759L184.912 57.4745C188.249 60.0774 190.117 62.9345 190.144 65.9121C190.211 72.8065 180.474 78.8522 165.302 82.6311C202.638 77.5206 228.821 64.7857 228.674 49.6501C228.621 44.2653 225.237 39.1246 219.213 34.4759ZM207.817 27.6811C200.438 34.5413 185.513 48.4407 179.571 54.149C173.665 51.1045 165.594 48.5485 156.067 46.762L170.115 16.4508C185.012 19.1172 197.932 22.9871 207.817 27.6811ZM154.904 14.2345C145.519 13.1612 135.577 12.5403 125.29 12.4471C116.778 12.371 108.511 12.6605 100.607 13.275L107.588 44.6476C113.306 44.1457 119.34 43.8848 125.597 43.9383C133.682 44.0119 141.388 44.6007 148.529 45.5709L154.904 14.2345ZM85.1842 14.9438C68.7897 17.2445 54.5868 21.0209 43.8761 25.8246C51.0705 32.5169 66.2088 46.6211 72.6278 52.7706C79.3636 49.5522 88.783 47.0229 99.8408 45.5107L85.1842 14.9438ZM32.3694 32.3548C26.0671 37.0077 22.5668 42.2437 22.6211 47.8033C22.7688 62.9414 49.2176 76.1514 86.6772 81.9303C71.4123 77.8788 61.5464 71.656 61.4756 64.7612C61.4486 61.6097 63.5119 58.6455 67.1596 55.9891L32.3694 32.3548Z" fill="#66757F" fill-rule="evenodd"/>
<path clip-rule="evenodd" d="M251.187 43.4291C251.187 35.8034 234.996 0.163655 121.774 0.163452C-0.76974 0.163452 0.529491 40.4446 0.529491 40.4446V124.951C0.606416 132.43 7.5856 139.578 18.1523 145.842L34.9079 153.659C40.0269 155.577 45.6144 157.343 51.6426 158.944L76.713 164.201C82.2446 165.078 88.007 165.802 93.9162 166.409C93.9162 166.409 101.582 167.863 126.407 167.863C151.232 167.863 159.149 167.016 159.149 167.016C165.219 166.499 171.135 165.864 176.799 165.05L201.765 160.172C207.758 158.661 213.318 156.978 218.395 155.136L234.996 147.56C245.535 141.399 250.815 134.293 250.738 126.772C250.738 126.772 251.187 51.0549 251.187 43.4291ZM246.262 45.1926C246.485 67.3538 192.666 84.8311 126.049 84.2356C59.426 83.6401 5.24278 65.1791 5.02702 43.0314C4.80452 20.8702 58.6303 3.39282 125.247 3.98834C191.856 4.59054 246.04 23.0381 246.262 45.1926ZM126.252 99.656C144.019 99.8098 158.495 107.237 158.785 136.411C158.907 148.334 158.603 157.287 157.949 163.998C148.004 164.841 137.614 165.296 126.826 165.203C115.815 165.102 105.195 164.447 95.0547 163.403C94.7648 155.641 94.5625 146.581 94.4546 135.835C94.1647 106.662 108.493 99.4954 126.252 99.656ZM78.0837 122.493L78.0904 123.309V122.767L78.468 161.262C69.8173 159.883 61.7532 158.15 54.2959 156.163L53.9521 121.248L53.9453 120.8L53.9116 117.655L53.8981 116.598L53.8847 115.233V114.985C53.7431 100.392 77.9353 107.906 78.0837 122.493ZM198.627 116.284L198.634 116.672L198.627 116.544L199.032 157.361C191.615 159.241 183.584 160.847 174.961 162.091L174.576 123.597V123.356C174.428 108.769 198.479 101.697 198.627 116.284ZM21.5743 100.104C21.4327 85.5175 37.5812 92.9581 37.7295 107.545C37.8004 114.84 37.8197 116.663 37.8193 116.663C37.8191 116.663 37.8114 115.971 37.8037 115.44L38.1543 151.044C31.9983 148.716 26.5571 146.18 21.9991 143.463L21.5743 100.379V100.104ZM214.715 116.739L214.634 109.131C214.492 94.5439 230.506 87.391 230.647 101.978L231.079 145.123C226.568 147.779 221.181 150.235 215.072 152.469L214.715 116.739Z" fill="#66757F" fill-rule="evenodd"/>
</svg>